<svg xmlns="http://www.w3.org/2000/svg" viewBox="0 0 156.94 166.11"><defs><style>.cls-1,.cls-2,.cls-3,.cls-4{fill:none;}.cls-1,.cls-2{stroke:#d57ab0;}.cls-1,.cls-3,.cls-5{stroke-linecap:round;}.cls-1,.cls-2,.cls-3,.cls-4,.cls-5{stroke-miterlimit:10;}.cls-1{stroke-width:2px;}.cls-2,.cls-3,.cls-4,.cls-5{stroke-width:4px;}.cls-3,.cls-4,.cls-5{stroke:#58a774;}.cls-5{fill:#fff;}.cls-6{fill:#d57ab0;}</style></defs><g id="Calque_2" data-name="Calque 2"><line class="cls-1" x1="84.18" y1="149.62" x2="48.88" y2="151.3"/><circle class="cls-2" cx="136.11" cy="144.98" r="15.76"/><circle class="cls-2" cx="18.32" cy="147.35" r="14.75"/><path class="cls-3" d="M114.71,142.76a19.75,19.75,0,0,1,.56-4.37,21,21,0,0,1,9.12-12.75,23.63,23.63,0,0,1,11.27-2.91,21.12,21.12,0,0,1,15.12,5.84"/><path class="cls-4" d="M116.82,142.59l-70.49,2.64c-2.69-.74-6.18-2.22-7.68-5.4-.57-1.21-.43-1.76-1-4-.38-1.54-1.42-5.79-3.74-8.82-.86-1.13-3.49-4.14-9.26-5.43"/><line class="cls-4" x1="21.63" y1="128.79" x2="43.03" y2="8.64"/><polyline class="cls-5" points="17.83 11.97 37.62 8.82 42.38 9.54 46.42 7.42 68.49 3.9"/><line class="cls-3" x1="135.67" y1="153.64" x2="51.1" y2="156.61"/><line class="cls-3" x1="46.33" y1="145.23" x2="51.1" y2="156.61"/><path class="cls-6" d="M70.25,102.63a13.07,13.07,0,0,1-3.61,9.58,12.69,12.69,0,0,1-9.48,3.67,12.8,12.8,0,0,1-9.37-3.62,12.53,12.53,0,0,1-3.68-9.32,13.66,13.66,0,0,1,3.52-9.74,12.49,12.49,0,0,1,9.53-3.74,12.74,12.74,0,0,1,9.47,3.66A13,13,0,0,1,70.25,102.63Zm-8.49,0A5.61,5.61,0,0,0,60.5,99a4,4,0,0,0-3.29-1.56,4.19,4.19,0,0,0-3.37,1.6,5.8,5.8,0,0,0,0,7.17,4.19,4.19,0,0,0,3.37,1.6,4.13,4.13,0,0,0,3.34-1.6A5.54,5.54,0,0,0,61.76,102.63Z"/><path class="cls-6" d="M90.7,107.78a21.62,21.62,0,0,1-.2,2.36,20.7,20.7,0,0,0-.19,2.31,1.77,1.77,0,0,1-.16,1,3.13,3.13,0,0,1-.85.59,15,15,0,0,1-7.4,1.84q-7.49,0-7.48-5.72c0-1.14,0-2.85.13-5.14s.13-4,.13-5.13q0-1.14-1.32-1.14H73a2.45,2.45,0,0,1-.34,0c-.65,0-1-.23-1-.69,0-.28,0-.7.07-1.27s.06-1,.06-1.27,0-.92-.06-1.66-.07-1.29-.07-1.65.55-.54,1.66-.57c.62,0,1-.19,1-.52a20.25,20.25,0,0,0,.1-3.11c-.07-2.22-.1-3.28-.1-3.18q0-3,.57-3a9.06,9.06,0,0,1,2,.31q1.47.33,2,.39c.88.12,2.21.28,4,.49.43,0,.65.18.65.44,0,.69-.06,1.73-.17,3.13s-.17,2.45-.17,3.16S83.52,91,84,91s1.52,0,2.74-.08,2.15-.08,2.77-.08q.57,0,.57.39A16.84,16.84,0,0,1,90,93a17.17,17.17,0,0,0-.13,1.79c0,.41,0,1,0,1.81s0,1.4,0,1.81-.25.55-.75.55l-1.73,0c-.81,0-1.39,0-1.73,0h-2c-.25,0-.38.38-.38,1.14v1.84c0,.82,0,1.44,0,1.83a6.49,6.49,0,0,0,.49,3,3,3,0,0,0,2.75,1.12,8.29,8.29,0,0,0,1.85-.3,8.28,8.28,0,0,1,1.69-.3C90.52,107.21,90.7,107.4,90.7,107.78Z"/><path class="cls-6" d="M110.73,107.78a21.62,21.62,0,0,1-.2,2.36,20.7,20.7,0,0,0-.19,2.31,1.77,1.77,0,0,1-.16,1,3.13,3.13,0,0,1-.85.59,15,15,0,0,1-7.4,1.84q-7.49,0-7.48-5.72c0-1.14,0-2.85.13-5.14s.13-4,.13-5.13q0-1.14-1.32-1.14h-.34a2.45,2.45,0,0,1-.34,0c-.65,0-1-.23-1-.69,0-.28,0-.7.07-1.27s.06-1,.06-1.27,0-.92-.06-1.66-.07-1.29-.07-1.65.55-.54,1.66-.57c.62,0,1-.19,1-.52A19,19,0,0,0,94.5,88c-.07-2.22-.1-3.28-.1-3.18q0-3,.57-3a9.06,9.06,0,0,1,2,.31q1.47.33,2,.39c.88.12,2.21.28,4,.49.43,0,.65.18.65.44,0,.69-.06,1.73-.17,3.13s-.17,2.45-.17,3.16.25,1.27.75,1.27,1.52,0,2.74-.08,2.15-.08,2.77-.08q.57,0,.57.39A16.84,16.84,0,0,1,110,93c-.08.8-.13,1.39-.13,1.79s0,1,0,1.81,0,1.4,0,1.81-.25.55-.75.55l-1.73,0c-.81,0-1.39,0-1.73,0h-1.95c-.25,0-.38.38-.38,1.14v1.84c0,.82,0,1.44,0,1.83a6.49,6.49,0,0,0,.49,3,3,3,0,0,0,2.75,1.12,8.29,8.29,0,0,0,1.85-.3,8.28,8.28,0,0,1,1.69-.3C110.55,107.21,110.73,107.4,110.73,107.78Z"/><path class="cls-6" d="M137.15,101.31c0,1.74-.56,2.74-1.68,3l-5.36.57c-2,.22-5.07.49-9.11.8a3.64,3.64,0,0,0,2.2,2.56,7.81,7.81,0,0,0,3.42.73,9.77,9.77,0,0,0,4.63-1.25l2-1.24A7.46,7.46,0,0,1,135,109.1a9.85,9.85,0,0,1,1.28,3c0,.12-.13.32-.39.59-2.1,2.27-5.37,3.39-9.8,3.39a13.8,13.8,0,0,1-9.94-3.59,12.77,12.77,0,0,1-3.89-9.76A13.94,13.94,0,0,1,115.77,93a12.18,12.18,0,0,1,9.47-3.93,11.25,11.25,0,0,1,8.44,3.62A12.06,12.06,0,0,1,137.15,101.31Zm-9.06-1.58A4,4,0,0,0,127,96.91a3.58,3.58,0,0,0-2.71-1.21,3.26,3.26,0,0,0-2.7,1.37,4.72,4.72,0,0,0-1,3c0,.47.24.7.73.7a46.51,46.51,0,0,0,5.95-.59C127.81,100.06,128.09,99.92,128.09,99.73Z"/></g></svg>