<svg xmlns="http://www.w3.org/2000/svg" viewBox="0 0 310.79 328.31"><defs><style>.cls-1,.cls-6{fill:#fff;}.cls-2,.cls-3,.cls-4,.cls-5{fill:none;}.cls-2,.cls-3{stroke:#d57ab0;}.cls-2,.cls-4,.cls-6{stroke-linecap:round;}.cls-2,.cls-3,.cls-4,.cls-5,.cls-6{stroke-miterlimit:10;}.cls-2{stroke-width:2px;}.cls-3,.cls-4,.cls-5,.cls-6{stroke-width:4px;}.cls-4,.cls-5,.cls-6{stroke:#58a774;}.cls-7{fill:#d57ab0;}</style></defs><g id="Calque_2" data-name="Calque 2"><circle class="cls-1" cx="153.3" cy="161.26" r="151.55"/><line class="cls-2" x1="156.95" y1="226.62" x2="115.78" y2="228.59"/><circle class="cls-3" cx="217.51" cy="221.21" r="18.38"/><circle class="cls-3" cx="80.15" cy="223.98" r="17.19"/><path class="cls-4" d="M192.55,218.62a23.46,23.46,0,0,1,.65-5.09,24.48,24.48,0,0,1,10.64-14.87A27.49,27.49,0,0,1,217,195.27c8.81-.11,13.93,3.6,17.63,6.8"/><path class="cls-5" d="M195,218.42l-82.2,3.09c-3.14-.87-7.21-2.59-9-6.3-.67-1.41-.5-2.05-1.14-4.68-.44-1.8-1.65-6.76-4.36-10.28-1-1.32-4.07-4.84-10.79-6.34"/><line class="cls-5" x1="84.01" y1="202.33" x2="108.96" y2="62.22"/><polyline class="cls-6" points="79.57 66.11 102.65 62.43 108.2 63.27 112.92 60.79 138.65 56.69"/><line class="cls-4" x1="216.99" y1="231.31" x2="118.37" y2="234.77"/><line class="cls-4" x1="112.81" y1="221.51" x2="118.37" y2="234.77"/><path class="cls-7" d="M140.71,171.83A15.26,15.26,0,0,1,136.5,183a16.32,16.32,0,0,1-22,.06,14.55,14.55,0,0,1-4.28-10.86q0-7,4.1-11.36t11.11-4.36a14.84,14.84,0,0,1,11,4.27A15.06,15.06,0,0,1,140.71,171.83Zm-9.9,0a6.53,6.53,0,0,0-1.48-4.21,4.7,4.7,0,0,0-3.83-1.83,4.9,4.9,0,0,0-3.93,1.87,6.75,6.75,0,0,0,0,8.36,4.87,4.87,0,0,0,3.93,1.87,4.82,4.82,0,0,0,3.89-1.87A6.4,6.4,0,0,0,130.81,171.83Z"/><path class="cls-7" d="M164.55,177.83a25.21,25.21,0,0,1-.23,2.75,25.31,25.31,0,0,0-.23,2.7,2.13,2.13,0,0,1-.18,1.1,3.82,3.82,0,0,1-1,.7,17.72,17.72,0,0,1-8.63,2.14q-8.73,0-8.73-6.67c0-1.33.05-3.32.16-6s.15-4.66.15-6c0-.89-.52-1.33-1.54-1.33h-.4l-.39,0q-1.14,0-1.14-.81c0-.33,0-.82.07-1.48s.08-1.16.08-1.48,0-1.07-.08-1.93-.07-1.51-.07-1.93.64-.63,1.93-.67q1.08,0,1.17-.6a21,21,0,0,0,.13-3.62c-.09-2.6-.13-3.84-.13-3.72,0-2.33.22-3.5.67-3.5a10.32,10.32,0,0,1,2.32.37,21.62,21.62,0,0,0,2.39.45c1,.14,2.57.33,4.64.57.51,0,.76.21.76.51,0,.81-.07,2-.2,3.66s-.19,2.85-.19,3.68.29,1.48.87,1.48,1.77,0,3.2-.09,2.5-.09,3.23-.09q.66,0,.66.45c0,.46,0,1.16-.15,2.08s-.15,1.62-.15,2.08,0,1.19,0,2.12,0,1.63,0,2.11-.29.63-.87.63c-.41,0-1.08,0-2,0l-2-.05h-2.26c-.3,0-.45.44-.45,1.33v2.14c0,1,0,1.68,0,2.14a7.57,7.57,0,0,0,.57,3.51c.54.86,1.61,1.29,3.2,1.29a9.81,9.81,0,0,0,2.16-.34,9.1,9.1,0,0,1,2-.35C164.34,177.17,164.55,177.39,164.55,177.83Z"/><path class="cls-7" d="M187.91,177.83a25.21,25.21,0,0,1-.23,2.75,25.31,25.31,0,0,0-.23,2.7,2.13,2.13,0,0,1-.18,1.1,3.82,3.82,0,0,1-1,.7,17.73,17.73,0,0,1-8.64,2.14q-8.71,0-8.72-6.67c0-1.33.05-3.32.15-6s.15-4.66.15-6c0-.89-.51-1.33-1.53-1.33h-.4l-.39,0c-.76,0-1.15-.27-1.15-.81,0-.33,0-.82.08-1.48s.08-1.16.08-1.48,0-1.07-.08-1.93-.08-1.51-.08-1.93.65-.63,1.94-.67q1.08,0,1.17-.6a22.41,22.41,0,0,0,.12-3.62q-.12-3.9-.12-3.72c0-2.33.22-3.5.67-3.5a10.4,10.4,0,0,1,2.32.37,22,22,0,0,0,2.38.45q1.54.21,4.65.57c.5,0,.76.21.76.51,0,.81-.07,2-.2,3.66s-.2,2.85-.2,3.68.3,1.48.88,1.48,1.77,0,3.2-.09,2.5-.09,3.23-.09q.66,0,.66.45c0,.46-.05,1.16-.15,2.08s-.15,1.62-.15,2.08,0,1.19,0,2.12,0,1.63,0,2.11-.29.63-.88.63c-.4,0-1.07,0-2,0l-2-.05h-2.26c-.3,0-.46.44-.46,1.33v2.14c0,1,0,1.68,0,2.14a7.54,7.54,0,0,0,.58,3.51c.54.86,1.61,1.29,3.2,1.29a9.65,9.65,0,0,0,2.15-.34,9.26,9.26,0,0,1,2-.35A.58.58,0,0,1,187.91,177.83Z"/><path class="cls-7" d="M218.72,170.29c0,2-.66,3.19-2,3.47q-.34.06-6.25.66c-2.37.26-5.92.58-10.62.94a4.27,4.27,0,0,0,2.56,3,9.12,9.12,0,0,0,4,.84,11.35,11.35,0,0,0,5.41-1.45l2.29-1.45c.42.21,1.13,1.23,2.13,3.08a11.45,11.45,0,0,1,1.49,3.53c0,.14-.15.38-.45.7q-3.69,3.94-11.44,4-7.19,0-11.59-4.19T189.75,172a16.22,16.22,0,0,1,4-11.38A14.21,14.21,0,0,1,204.84,156a13.08,13.08,0,0,1,9.83,4.23A14,14,0,0,1,218.72,170.29Zm-10.56-1.84a4.68,4.68,0,0,0-1.33-3.29,4.19,4.19,0,0,0-3.17-1.42,3.81,3.81,0,0,0-3.14,1.6,5.53,5.53,0,0,0-1.15,3.47c0,.54.28.81.85.81a53.3,53.3,0,0,0,6.94-.69C207.82,168.83,208.16,168.67,208.16,168.45Z"/></g></svg>