<svg id="Calque_1" data-name="Calque 1" xmlns="http://www.w3.org/2000/svg" viewBox="0 0 409.6 409.6"><defs><style>.cls-1{fill:#fff;}</style></defs><path class="cls-1" d="M170.07,0H409.6V409.6H0V170.07c2.91,9.57,9.21,15.1,19.18,16.75,8.12,1.34,16.19,3,24.22,4.89a7,7,0,0,1,4.08,3.4c2,4,3.41,8.35,5.32,12.43a4.78,4.78,0,0,1-.39,5.45q-7.57,11-14.87,22.2c-6.19,9.51-5.21,19,2.73,27.19q5.56,5.72,11.28,11.29c8.41,8.23,18,9.13,27.85,2.63,7.33-4.83,14.55-9.83,22-14.51a6.47,6.47,0,0,1,4.93-.44,109.21,109.21,0,0,1,12.85,5.36,6.45,6.45,0,0,1,3.22,3.72c2,8.81,3.61,17.7,5.44,26.55,2.14,10.31,9.28,16.58,19.72,17,6.37.26,12.78.26,19.15,0,10.19-.42,17.18-6.33,19.43-16.3,1.67-7.38,3.59-14.77,4.41-22.27.66-6,3.09-9.36,9-10.49,2-.39,3.94-1.57,5.87-2.46,4.27-2,5.93-5.35,4.47-8.91s-5-4.64-9.49-3-8.61,3.59-13.06,4.84c-4.75,1.33-6.91,4.15-7.72,8.92-1.67,9.82-3.75,19.57-5.73,29.34-1.13,5.54-3.42,7.38-9.09,7.43q-7.78.08-15.57,0c-5.46-.06-7.66-1.82-8.78-7.22-2.12-10.15-4.29-20.28-6.11-30.48-.76-4.24-3-6.4-6.85-7.83-6.46-2.38-12.89-4.95-19.09-7.93-4-1.91-7.16-1.6-10.72.87-8.3,5.76-16.77,11.28-25.21,16.85-5,3.31-7.8,3-12-1.09Q55.17,259.13,50,253.85c-4.37-4.44-4.65-7.1-1.2-12.31,5.73-8.65,11.45-17.3,17.3-25.86,2.11-3.1,2.16-5.94.6-9.32-2.93-6.39-5.82-12.83-8.09-19.46-1.5-4.38-4.05-6.44-8.44-7.23-9.81-1.76-19.57-3.79-29.34-5.75-6-1.19-7.91-3.55-8-9.56,0-4.79,0-9.58,0-14.37,0-6.19,1.75-8.41,7.74-9.65,10.14-2.12,20.29-4.23,30.48-6.13,3.87-.72,6-2.76,7.29-6.38,2.39-6.47,5-12.89,7.92-19.11,1.93-4,1.91-7.33-.72-11.09-5.88-8.37-11.45-17-17.07-25.53-3.06-4.66-2.78-7.41,1.06-11.36,3.53-3.63,7.13-7.18,10.73-10.73,4.47-4.4,7.08-4.67,12.29-1.22,8.65,5.72,17.3,11.45,25.87,17.29a8.45,8.45,0,0,0,9,.79q10.36-4.58,21-8.68a8.47,8.47,0,0,0,5.81-6.87c2-10.31,4.06-20.6,6.19-30.88,1.2-5.76,3.46-7.53,9.38-7.58,4.66,0,9.32,0,14,0,6.84,0,9,1.86,10.32,8.51,1.9,9.78,3.91,19.54,5.75,29.34a9.17,9.17,0,0,0,6.5,7.69q10.1,3.64,19.85,8.21a9.07,9.07,0,0,0,10-.83c8.53-5.88,17.21-11.58,25.88-17.27,4.65-3.06,7.42-2.78,11.37,1,3.63,3.51,7.19,7.11,10.74,10.71,4.36,4.4,4.64,7.12,1.2,12.32-5.65,8.54-11.26,17.11-17.08,25.53-2.32,3.36-2.37,6.36-.68,10,3,6.5,5.72,13.14,8.23,19.84,1.36,3.64,3.54,5.57,7.38,6.28,10.46,1.93,20.87,4.09,31.27,6.26,4.68,1,6.59,3.32,6.69,8,.1,5,0,10.11,0,15.17,0,7.13-1.63,9-8.77,10.37-9.78,1.9-19.55,3.88-29.33,5.81-3,.59-5.54,1.74-6.7,4.91-2.06,5.61-4.27,11.16-6.28,16.78-1.39,3.87,0,7.23,3.38,8.67s6.66,0,8.45-3.8A113.07,113.07,0,0,0,266.54,195a4.68,4.68,0,0,1,4.18-3.49c9.15-1.7,18.28-3.47,27.36-5.51,9.47-2.13,15.41-9.22,15.87-19,.3-6.24.27-12.5.1-18.75-.3-11.18-6.49-18.35-17.46-20.58-8.72-1.77-17.48-3.4-26.16-5.37a6.47,6.47,0,0,1-3.72-3.23,110.78,110.78,0,0,1-5.36-12.84,6.51,6.51,0,0,1,.43-4.93c4.84-7.64,10-15.06,14.94-22.64,5.93-9.15,5-18.74-2.49-26.6-3.86-4-7.85-8-11.85-11.86-8.15-7.94-17.67-8.9-27.19-2.73-5.8,3.76-11.83,7.27-17.17,11.61-5.18,4.2-9.84,5.26-15.56,1.33-2.24-1.54-5.28-1.84-7.72-3.14a6.28,6.28,0,0,1-3-3.54c-1.73-7.51-3.52-15-4.57-22.66C185.71,10.46,180.6,3.15,170.07,0ZM387.63,243.52c-1.72-3.37-3-7-5.23-10-2.54-3.37-5.81-6.21-8.93-9.1-5.6-5.22-12.84-5.86-19.44-1.79-3.39,2.1-6.94,4.07-9.93,6.66-4.08,3.54-7.89,3.67-12.5,1.15-2.17-1.18-3.53-2.25-4-4.79-.91-5.37-1.94-10.73-3.28-16-1.81-7.14-7.45-11.49-14.77-11.69-3.86-.11-7.72-.08-11.58,0-8.5.12-14.3,4.87-16.09,13.19-.78,3.64-1.94,7.27-2.11,10.94-.25,5.69-3.19,8.34-8.32,9.89-2.3.7-3.86.7-5.79-.68-4.11-2.93-8.33-5.72-12.59-8.43-7.06-4.47-14.32-3.71-20.4,2.08-2.79,2.66-5.55,5.37-8.16,8.2-5.29,5.72-6,12.81-1.94,19.44a92.92,92.92,0,0,0,6.64,9.94c3.1,3.87,4.38,7.53,1.3,12.07-1.15,1.7-1.52,3.94-2.15,6-1.42,4.54-.12,8,3.48,9.28,3.75,1.39,6.87-.51,8.75-5.22,1.73-4.3,3.45-8.62,5.38-12.84a7.78,7.78,0,0,0-.66-8.27c-2.26-3.28-4.48-6.6-6.63-10-7.64-12-8.21-7.76,2.33-18.76,1.91-2,3.68-2.11,5.94-.54,5.36,3.7,10.88,7.18,16.24,10.88a8.28,8.28,0,0,0,9,.69,130.83,130.83,0,0,1,12.49-5.18,8.3,8.3,0,0,0,6-7.17c.6-3.67,1.43-7.3,2.2-10.94,3-14-.13-11.43,14.78-11.75,2.7-.06,4.15.94,4.66,3.73,1.16,6.4,2.66,12.75,3.8,19.15a8.34,8.34,0,0,0,6.12,7.05A95.7,95.7,0,0,1,334,245.6a8.9,8.9,0,0,0,10-.76c5.21-3.67,10.61-7.08,15.88-10.68,2.11-1.44,3.85-1.37,5.63.54,2,2.14,4.05,4.23,6.21,6.2s2.34,3.8.63,6.24c-3.73,5.33-7.21,10.85-10.89,16.22a8.08,8.08,0,0,0-.69,8.63c1.94,4.21,3.78,8.49,5.32,12.86a8.13,8.13,0,0,0,6.88,5.78c3.79.66,7.56,1.48,11.33,2.27,13.73,2.88,11.32,0,11.64,14.51.07,3.13-1.22,4.5-4.29,5-6.29,1.08-12.5,2.57-18.77,3.71A8.19,8.19,0,0,0,366.1,322c-1.55,4.37-3.4,8.64-5.32,12.86a7.83,7.83,0,0,0,.55,8.28c2.25,3.3,4.5,6.6,6.64,10,7.66,12,8.18,7.83-1.91,18.49-2.33,2.45-4.27,2.4-6.89.54-5.1-3.61-10.42-6.91-15.55-10.47a8.33,8.33,0,0,0-9-.8c-4.21,2-8.49,3.77-12.86,5.34a7.94,7.94,0,0,0-5.6,6.56c-1.21,6.39-2.67,12.74-3.79,19.15-.51,2.91-1.88,4.18-4.8,4.07s-5.6-.11-8.39,0-4.32-1.12-4.83-4c-1.13-6.41-2.55-12.77-3.77-19.17A8,8,0,0,0,285,366.2c-4.49-1.62-8.89-3.51-13.24-5.47a7.77,7.77,0,0,0-8.26.68c-3.17,2.2-6.36,4.36-9.62,6.42-12.39,7.87-7.92,8.49-19.08-2.16-2-1.91-2.1-3.69-.54-5.94,3.77-5.48,7.36-11.07,11.1-16.57a7.84,7.84,0,0,0,.61-8.27c-1.95-4.35-3.83-8.75-5.47-13.23a7.75,7.75,0,0,0-6.26-5.43c-3.91-.75-7.82-1.52-11.72-2.36-14-3-11.4.15-11.72-14.81-.05-2.46.81-3.83,3.33-4.64,4.35-1.39,6.07-4.6,4.9-8.15s-4.52-5.15-8.74-4.16A15.48,15.48,0,0,0,198,296.9c-.13,4.26-.12,8.52,0,12.77a15.1,15.1,0,0,0,11.76,14.73,62.42,62.42,0,0,0,11.71,2.33c6,.38,9.47,3.32,10.56,9.06a7.16,7.16,0,0,1-.49,4.62c-2.79,4.67-6,9.08-8.91,13.7-4.1,6.6-3.39,13.78,1.87,19.43,2.71,2.92,5.55,5.73,8.45,8.48,5.8,5.48,12.95,6.24,19.73,2.05A79.84,79.84,0,0,0,263,377.19c3.87-3.3,7.41-3.46,11.82-1.13,2.44,1.3,4,2.51,4.4,5.36.71,4.73,1.75,9.41,2.74,14.09,1.76,8.35,7.55,13.14,16,13.28,3.6.06,7.19,0,10.78,0,8.5-.12,14.31-4.87,16.11-13.18.73-3.38,1.72-6.77,1.88-10.18.31-6.2,3.5-9.62,9.29-10.82a6.45,6.45,0,0,1,4.27.46c4.66,2.82,9.07,6.05,13.69,8.94,6.76,4.24,14,3.51,19.75-1.91,2.9-2.75,5.73-5.57,8.46-8.48,5.3-5.61,6-12.8,2-19.41a70.79,70.79,0,0,0-6.43-9.6c-3.8-4.38-4.5-8.74-1.08-13.46,1-1.32,2.37-2.8,3.84-3.18,5.52-1.44,11.2-2.25,16.73-3.67a15,15,0,0,0,11.53-14.49c.15-4,.1-8,0-12-.14-8.26-4.9-14.08-13-15.86-3.5-.77-7-1.84-10.56-2-6.14-.23-9.41-3.38-10.56-9a7,7,0,0,1,.51-4.61c2.66-4.45,5.87-8.57,8.46-13C385.26,250.5,386.13,247.28,387.63,243.52ZM157,117.77c-21.5.08-39.37,18.07-39.22,39.47a39.71,39.71,0,0,0,39.56,39.15c21.21-.12,39-18.06,39-39.29C196.4,135.69,178.38,117.7,157,117.77Zm72.92,39.55c-.64-5.14-.83-10.38-2-15.4C217.93,98,173.8,74,131.44,89.26A68.51,68.51,0,0,0,106.71,105c-2.79,2.72-2.85,6.33-.52,9a6.35,6.35,0,0,0,8.64.81,40.91,40.91,0,0,0,3.37-2.82c33.06-28.79,85.8-12.33,96.53,30.18a59.59,59.59,0,0,1-3.93,40.83c-2.18,4.67-1.16,8.34,2.35,10,3.84,1.79,7.16.09,9.39-4.67A80.11,80.11,0,0,0,229.92,157.32Zm-70.44,72.37c3.15-.45,9-1,14.69-2.19A66.53,66.53,0,0,0,199,216.22c3.3-2.36,4-6.11,2.05-9.09s-5.32-3.61-8.83-1.81c-1.65.85-3.2,1.9-4.79,2.87C158.43,226,119,214.54,103.89,184a59.44,59.44,0,0,1-3.81-44.54c1.53-5.2.2-8.78-3.6-10-4-1.25-7,1-8.75,6.42a67.75,67.75,0,0,0-2.83,28.36C89.17,201.81,118.94,228.77,159.48,229.69Zm107.88,73.25A36,36,0,0,0,295.8,338.6a35.21,35.21,0,0,0,29.08-6.27c3.14-2.29,3.85-5.76,2-8.76s-5.21-3.83-8.7-2.07c-1.18.6-2.26,1.39-3.41,2.05-14.48,8.3-33.22-1.52-34.48-18.07-1-12.86,8.36-24.15,20.83-25.17,13.2-1.07,24.08,8.15,25.36,21.5.51,5.35,3,8.2,7,7.92,4.12-.28,6.17-3.37,5.83-8.75a36,36,0,0,0-71.94,2Z"/><path d="M170.07,0c10.53,3.15,15.64,10.46,17.11,21.14,1,7.62,2.84,15.15,4.57,22.66a6.28,6.28,0,0,0,3,3.54c2.44,1.3,5.48,1.6,7.72,3.14,5.72,3.93,10.38,2.87,15.56-1.33,5.34-4.34,11.37-7.85,17.17-11.61,9.52-6.17,19-5.21,27.19,2.73,4,3.9,8,7.82,11.85,11.86,7.51,7.86,8.42,17.45,2.49,26.6-4.92,7.58-10.1,15-14.94,22.64a6.51,6.51,0,0,0-.43,4.93,110.78,110.78,0,0,0,5.36,12.84,6.47,6.47,0,0,0,3.72,3.23c8.68,2,17.44,3.6,26.16,5.37,11,2.23,17.16,9.4,17.46,20.58.17,6.25.2,12.51-.1,18.75-.46,9.73-6.4,16.82-15.87,19-9.08,2-18.21,3.81-27.36,5.51a4.68,4.68,0,0,0-4.18,3.49,113.07,113.07,0,0,1-4.63,11.44c-1.79,3.83-5.15,5.21-8.45,3.8s-4.77-4.8-3.38-8.67c2-5.62,4.22-11.17,6.28-16.78,1.16-3.17,3.69-4.32,6.7-4.91,9.78-1.93,19.55-3.91,29.33-5.81,7.14-1.4,8.75-3.24,8.77-10.37,0-5.06.08-10.12,0-15.17-.1-4.72-2-7.06-6.69-8-10.4-2.17-20.81-4.33-31.27-6.26-3.84-.71-6-2.64-7.38-6.28-2.51-6.7-5.22-13.34-8.23-19.84-1.69-3.66-1.64-6.66.68-10,5.82-8.42,11.43-17,17.08-25.53,3.44-5.2,3.16-7.92-1.2-12.32-3.55-3.6-7.11-7.2-10.74-10.71-3.95-3.83-6.72-4.11-11.37-1-8.67,5.69-17.35,11.39-25.88,17.27a9.07,9.07,0,0,1-10,.83q-9.73-4.54-19.85-8.21a9.17,9.17,0,0,1-6.5-7.69C178,40.9,175.94,31.14,174,21.36c-1.3-6.65-3.48-8.48-10.32-8.51-4.65,0-9.31,0-14,0-5.92.05-8.18,1.82-9.38,7.58-2.13,10.28-4.23,20.57-6.19,30.88a8.47,8.47,0,0,1-5.81,6.87q-10.58,4.13-21,8.68a8.45,8.45,0,0,1-9-.79c-8.57-5.84-17.22-11.57-25.87-17.29-5.21-3.45-7.82-3.18-12.29,1.22-3.6,3.55-7.2,7.1-10.73,10.73-3.84,3.95-4.12,6.7-1.06,11.36,5.62,8.55,11.19,17.16,17.07,25.53,2.63,3.76,2.65,7,.72,11.09-3,6.22-5.53,12.64-7.92,19.11-1.34,3.62-3.42,5.66-7.29,6.38-10.19,1.9-20.34,4-30.48,6.13-6,1.24-7.71,3.46-7.74,9.65,0,4.79,0,9.58,0,14.37.05,6,2,8.37,8,9.56,9.77,2,19.53,4,29.34,5.75,4.39.79,6.94,2.85,8.44,7.23,2.27,6.63,5.16,13.07,8.09,19.46,1.56,3.38,1.51,6.22-.6,9.32-5.85,8.56-11.57,17.21-17.3,25.86-3.45,5.21-3.17,7.87,1.2,12.31q5.17,5.27,10.44,10.45c4.21,4.13,7,4.4,12,1.09,8.44-5.57,16.91-11.09,25.21-16.85,3.56-2.47,6.73-2.78,10.72-.87,6.2,3,12.63,5.55,19.09,7.93,3.89,1.43,6.09,3.59,6.85,7.83,1.82,10.2,4,20.33,6.11,30.48,1.12,5.4,3.32,7.16,8.78,7.22q7.78.08,15.57,0c5.67-.05,8-1.89,9.09-7.43,2-9.77,4.06-19.52,5.73-29.34.81-4.77,3-7.59,7.72-8.92,4.45-1.25,8.71-3.2,13.06-4.84s8-.56,9.49,3-.2,6.91-4.47,8.91c-1.93.89-3.83,2.07-5.87,2.46-5.92,1.13-8.35,4.46-9,10.49-.82,7.5-2.74,14.89-4.41,22.27-2.25,10-9.24,15.88-19.43,16.3-6.37.26-12.78.26-19.15,0-10.44-.43-17.58-6.7-19.72-17-1.83-8.85-3.45-17.74-5.44-26.55a6.45,6.45,0,0,0-3.22-3.72,109.21,109.21,0,0,0-12.85-5.36,6.47,6.47,0,0,0-4.93.44c-7.41,4.68-14.63,9.68-22,14.51-9.88,6.5-19.44,5.6-27.85-2.63q-5.7-5.58-11.28-11.29c-7.94-8.16-8.92-17.68-2.73-27.19Q44.85,224,52.41,213a4.78,4.78,0,0,0,.39-5.45c-1.91-4.08-3.3-8.41-5.32-12.43a7,7,0,0,0-4.08-3.4c-8-1.86-16.1-3.55-24.22-4.89-10-1.65-16.27-7.18-19.18-16.75V143.72c3.47-10.78,11.33-15.56,22.15-17,7.09-.92,14.06-2.8,21.11-4.1a5.07,5.07,0,0,0,4.47-3.71,116.37,116.37,0,0,1,5-12.14,5.1,5.1,0,0,0-.43-5.81Q44.7,90,37.46,78.79C31.39,69.4,32.36,59.94,40.11,52c3.61-3.72,7.31-7.35,11-11,8.94-8.87,18.19-9.8,28.7-2.85C86.89,42.79,94,47.44,101,52.29a5.09,5.09,0,0,0,5.81.43,116.37,116.37,0,0,1,12.14-5,5.07,5.07,0,0,0,3.71-4.47c1.3-7,3.18-14,4.1-21.11,1.41-10.82,6.19-18.68,17-22.15Z"/><path class="cls-1" d="M143.72,0c-10.78,3.47-15.56,11.33-17,22.15-.92,7.09-2.8,14.06-4.1,21.11a5.07,5.07,0,0,1-3.71,4.47,116.37,116.37,0,0,0-12.14,5,5.09,5.09,0,0,1-5.81-.43c-7-4.85-14.1-9.5-21.19-14.19-10.51-7-19.76-6-28.7,2.85-3.68,3.65-7.38,7.28-11,11-7.75,8-8.72,17.45-2.65,26.84Q44.72,90,52.29,101a5.1,5.1,0,0,1,.43,5.81,116.37,116.37,0,0,0-5,12.14,5.07,5.07,0,0,1-4.47,3.71c-7,1.3-14,3.18-21.11,4.1-10.82,1.41-18.68,6.19-22.15,17V0Z"/><path d="M387.63,243.52c-1.5,3.76-2.37,7-4,9.77-2.59,4.48-5.8,8.6-8.46,13a7,7,0,0,0-.51,4.61c1.15,5.66,4.42,8.81,10.56,9,3.54.14,7.06,1.21,10.56,2,8.09,1.78,12.85,7.6,13,15.86.06,4,.11,8,0,12a15,15,0,0,1-11.53,14.49c-5.53,1.42-11.21,2.23-16.73,3.67-1.47.38-2.88,1.86-3.84,3.18-3.42,4.72-2.72,9.08,1.08,13.46a70.79,70.79,0,0,1,6.43,9.6c4,6.61,3.3,13.8-2,19.41-2.73,2.91-5.56,5.73-8.46,8.48-5.73,5.42-13,6.15-19.75,1.91-4.62-2.89-9-6.12-13.69-8.94a6.45,6.45,0,0,0-4.27-.46c-5.79,1.2-9,4.62-9.29,10.82-.16,3.41-1.15,6.8-1.88,10.18-1.8,8.31-7.61,13.06-16.11,13.18-3.59,0-7.18.06-10.78,0-8.46-.14-14.25-4.93-16-13.28-1-4.68-2-9.36-2.74-14.09-.42-2.85-2-4.06-4.4-5.36-4.41-2.33-7.95-2.17-11.82,1.13a79.84,79.84,0,0,1-10.26,6.88c-6.78,4.19-13.93,3.43-19.73-2.05-2.9-2.75-5.74-5.56-8.45-8.48-5.26-5.65-6-12.83-1.87-19.43,2.88-4.62,6.12-9,8.91-13.7a7.16,7.16,0,0,0,.49-4.62c-1.09-5.74-4.52-8.68-10.56-9.06a62.42,62.42,0,0,1-11.71-2.33A15.1,15.1,0,0,1,198,309.67c-.12-4.25-.13-8.51,0-12.77a15.48,15.48,0,0,1,12.28-14.79c4.22-1,7.56.6,8.74,4.16s-.55,6.76-4.9,8.15c-2.52.81-3.38,2.18-3.33,4.64.32,15-2.24,11.82,11.72,14.81,3.9.84,7.81,1.61,11.72,2.36a7.75,7.75,0,0,1,6.26,5.43c1.64,4.48,3.52,8.88,5.47,13.23a7.84,7.84,0,0,1-.61,8.27c-3.74,5.5-7.33,11.09-11.1,16.57-1.56,2.25-1.46,4,.54,5.94,11.16,10.65,6.69,10,19.08,2.16,3.26-2.06,6.45-4.22,9.62-6.42a7.77,7.77,0,0,1,8.26-.68c4.35,2,8.75,3.85,13.24,5.47a8,8,0,0,1,5.59,6.58c1.22,6.4,2.64,12.76,3.77,19.17.51,2.91,1.92,4.15,4.83,4s5.6-.11,8.39,0,4.29-1.16,4.8-4.07c1.12-6.41,2.58-12.76,3.79-19.15a7.94,7.94,0,0,1,5.6-6.56c4.37-1.57,8.65-3.38,12.86-5.34a8.33,8.33,0,0,1,9,.8c5.13,3.56,10.45,6.86,15.55,10.47,2.62,1.86,4.56,1.91,6.89-.54,10.09-10.66,9.57-6.48,1.91-18.49-2.14-3.36-4.39-6.66-6.64-10a7.83,7.83,0,0,1-.55-8.28c1.92-4.22,3.77-8.49,5.32-12.86a8.19,8.19,0,0,1,6.82-5.85c6.27-1.14,12.48-2.63,18.77-3.71,3.07-.52,4.36-1.89,4.29-5-.32-14.49,2.09-11.63-11.64-14.51-3.77-.79-7.54-1.61-11.33-2.27a8.13,8.13,0,0,1-6.88-5.78c-1.54-4.37-3.38-8.65-5.32-12.86a8.08,8.08,0,0,1,.69-8.63c3.68-5.37,7.16-10.89,10.89-16.22,1.71-2.44,1.54-4.28-.63-6.24s-4.22-4.06-6.21-6.2c-1.78-1.91-3.52-2-5.63-.54-5.27,3.6-10.67,7-15.88,10.68a8.9,8.9,0,0,1-10,.76,95.7,95.7,0,0,0-11.76-4.86,8.34,8.34,0,0,1-6.12-7.05c-1.14-6.4-2.64-12.75-3.8-19.15-.51-2.79-2-3.79-4.66-3.73-14.91.32-11.82-2.25-14.78,11.75-.77,3.64-1.6,7.27-2.2,10.94a8.3,8.3,0,0,1-6,7.17,130.83,130.83,0,0,0-12.49,5.18,8.28,8.28,0,0,1-9-.69c-5.36-3.7-10.88-7.18-16.24-10.88-2.26-1.57-4-1.46-5.94.54-10.54,11-10,6.8-2.33,18.76,2.15,3.36,4.37,6.68,6.63,10a7.78,7.78,0,0,1,.66,8.27c-1.93,4.22-3.65,8.54-5.38,12.84-1.88,4.71-5,6.61-8.75,5.22-3.6-1.33-4.9-4.74-3.48-9.28.63-2,1-4.27,2.15-6,3.08-4.54,1.8-8.2-1.3-12.07a92.92,92.92,0,0,1-6.64-9.94c-4.05-6.63-3.35-13.72,1.94-19.44,2.61-2.83,5.37-5.54,8.16-8.2,6.08-5.79,13.34-6.55,20.4-2.08,4.26,2.71,8.48,5.5,12.59,8.43,1.93,1.38,3.49,1.38,5.79.68,5.13-1.55,8.07-4.2,8.32-9.89.17-3.67,1.33-7.3,2.11-10.94,1.79-8.32,7.59-13.07,16.09-13.19,3.86,0,7.72-.08,11.58,0,7.32.2,13,4.55,14.77,11.69,1.34,5.27,2.37,10.63,3.28,16,.43,2.54,1.79,3.61,4,4.79,4.61,2.52,8.42,2.39,12.5-1.15,3-2.59,6.54-4.56,9.93-6.66,6.6-4.07,13.84-3.43,19.44,1.79,3.12,2.89,6.39,5.73,8.93,9.1C384.62,236.51,385.91,240.15,387.63,243.52Z"/><path d="M157,117.77c21.38-.07,39.4,17.92,39.39,39.33,0,21.23-17.84,39.17-39,39.29a39.71,39.71,0,0,1-39.56-39.15C117.63,135.84,135.5,117.85,157,117.77Zm-26.23,39.38c.06,14.53,12.15,26.57,26.48,26.35a26.84,26.84,0,0,0,26.25-26.32c.13-14.37-11.9-26.4-26.42-26.41A26.24,26.24,0,0,0,130.77,157.15Z"/><path d="M229.92,157.32a80.11,80.11,0,0,1-7.38,30.89c-2.23,4.76-5.55,6.46-9.39,4.67-3.51-1.63-4.53-5.3-2.35-10a59.59,59.59,0,0,0,3.93-40.83c-10.73-42.51-63.47-59-96.53-30.18a40.91,40.91,0,0,1-3.37,2.82,6.35,6.35,0,0,1-8.64-.81c-2.33-2.63-2.27-6.24.52-9a68.51,68.51,0,0,1,24.73-15.69C173.8,74,217.93,98,228,141.92,229.09,146.94,229.28,152.18,229.92,157.32Z"/><path d="M159.48,229.69c-40.54-.92-70.31-27.88-74.58-65.43a67.75,67.75,0,0,1,2.83-28.36c1.7-5.38,4.74-7.67,8.75-6.42,3.8,1.17,5.13,4.75,3.6,10A59.44,59.44,0,0,0,103.89,184c15.06,30.57,54.54,42,83.57,24.22,1.59-1,3.14-2,4.79-2.87,3.51-1.8,6.92-1.06,8.83,1.81s1.25,6.73-2.05,9.09a66.53,66.53,0,0,1-24.86,11.28C168.47,228.72,162.63,229.24,159.48,229.69Z"/><path d="M267.36,302.94a36,36,0,0,1,71.94-2c.34,5.38-1.71,8.47-5.83,8.75-4,.28-6.46-2.57-7-7.92-1.28-13.35-12.16-22.57-25.36-21.5-12.47,1-21.82,12.31-20.83,25.17,1.26,16.55,20,26.37,34.48,18.07,1.15-.66,2.23-1.45,3.41-2.05,3.49-1.76,6.87-.93,8.7,2.07s1.12,6.47-2,8.76a35.21,35.21,0,0,1-29.08,6.27A36,36,0,0,1,267.36,302.94Z"/><path class="cls-1" d="M130.77,157.15a26.24,26.24,0,0,1,26.31-26.38c14.52,0,26.55,12,26.42,26.41a26.84,26.84,0,0,1-26.25,26.32C142.92,183.72,130.83,171.68,130.77,157.15Z"/></svg>